# xmcd
#
# Track frame offsets:
# 150
# 10615
# 21945
# 33675
# 43949
# 54596
# 66984
# 82392
# 95870
# 113819
# 129850
# 143857
# 159952
# 173538
# 186665
# 196706
# 210027
# 221403
# 233795
# 242453
# 254345
# 268749
# 286553
# 300211
# 324231
#
# Disc length: 4467 seconds
#
#
# Revision: 0
# Processed by: cddbd v1.5.2PL0 Copyright (c) Steve Scherf et al.
# Submitted via: FreeRIP 2.951 
#
DISCID=55117119
DTITLE=Tina - Serenity Songs of Yesterday
DYEAR=2006
DGENRE=Country
TTITLE0=Oh Let Me Go Lover`
TTITLE1=I'm Just A Lonely Girl
TTITLE2=Since I Met You Baby
TTITLE3=Don't It Make My Brown Eyes Blue
TTITLE4=Take The Ribbon From My Hair
TTITLE5=Down TOwn
TTITLE6=Dear Me
TTITLE7=Just Another Woman In Love
TTITLE8=Grandpa
TTITLE9=Some Kind Of Trouble
TTITLE10=Coat Of Many Colors
TTITLE11=The Rose
TTITLE12=Delta Dawn
TTITLE13=I Got Your Picture
TTITLE14=Don't Want Your Love Anymore
TTITLE15=Mamma, He Is Crazy
TTITLE16=End Of The World
TTITLE17=I Fall To Pieces
TTITLE18=I Go Out Walking After Midnight
TTITLE19=What Part Of "No" Don't You Understand
TTITLE20=You've Got five minutes
TTITLE21=Who's Bed Have Your Boots Been Under
TTITLE22=Satin Sheets
TTITLE23=Coal Miner's Daughter
TTITLE24=Whatever Lola Wants, Lola Gets
EXTD=
EXTT0=
EXTT1=
EXTT2=
EXTT3=
EXTT4=
EXTT5=
EXTT6=
EXTT7=
EXTT8=
EXTT9=
EXTT10=
EXTT11=
EXTT12=
EXTT13=
EXTT14=
EXTT15=
EXTT16=
EXTT17=
EXTT18=
EXTT19=
EXTT20=
EXTT21=
EXTT22=
EXTT23=
EXTT24=
PLAYORDER=
